<?xml version="1.0" encoding="utf-8"?>
<!-- Generator: Adobe Illustrator 27.5.0, SVG Export Plug-In . SVG Version: 6.00 Build 0)  -->
<svg version="1.1" xmlns="http://www.w3.org/2000/svg" xmlns:xlink="http://www.w3.org/1999/xlink" x="0px" y="0px"
	 viewBox="0 0 500 500" style="enable-background:new 0 0 500 500;" xml:space="preserve">

<g id="Objects">
	<g>
		<g>
			<path style="fill:#FFFDFF;" d="M186.04,82.805c0.824-0.79,2.062-0.94,3.204-0.943c1.142-0.003,2.329,0.092,3.382-0.349
				c2.634-1.103,3.301-5.009,6.022-5.875c2.697-0.859,5.407,1.884,8.21,1.494c3.629-0.505,5.341-5.86,9.004-5.773
				c4.056,0.096,4.888,6.42,8.629,7.99c1.513,0.635,3.229,0.36,4.87,0.401c1.64,0.041,4.394,1.006,4.407,2.657
				c-13.444,0.74-27.18,1.386-40.182,1.78l-6.721,0.054C186.124,84.247,185.661,83.441,186.04,82.805L186.04,82.805z"/>
		</g>
		<g>
			<path style="fill:#FFFDFF;" d="M296.229,437.427c1.892-1.727,4.678-1.994,7.239-1.938c2.561,0.057,5.219,0.335,7.605-0.595
				c5.97-2.327,7.684-11.053,13.836-12.845c6.098-1.777,12.024,4.528,18.335,3.808c8.169-0.932,12.307-12.849,20.519-12.451
				c9.093,0.441,10.608,14.674,18.912,18.404c3.359,1.509,7.225,0.988,10.903,1.171c3.678,0.183,9.801,2.502,9.74,6.206
				c-30.2,0.913-61.049,1.597-90.238,1.759l-15.08-0.252C296.338,440.667,295.345,438.835,296.229,437.427L296.229,437.427z"/>
		</g>
		<g>
			<path style="fill:#FFFDFF;" d="M23.621,130.67c1.675-1.529,4.142-1.766,6.409-1.715c2.267,0.051,4.62,0.297,6.733-0.527
				c5.285-2.061,6.804-9.786,12.25-11.372c5.399-1.573,10.646,4.009,16.233,3.372c7.232-0.825,10.896-11.376,18.166-11.023
				c8.05,0.39,9.392,12.992,16.744,16.294c2.974,1.336,6.396,0.875,9.653,1.037c3.256,0.162,8.677,2.215,8.623,5.494
				c-26.737,0.808-54.05,1.414-79.892,1.557l-13.351-0.223C23.717,133.538,22.838,131.916,23.621,130.67L23.621,130.67z"/>
		</g>
		<g>
			<path style="fill:#FFFDFF;" d="M374.046,101.947c1.4-1.306,3.481-1.528,5.396-1.507c1.915,0.022,3.904,0.208,5.68-0.507
				c4.444-1.788,5.655-8.324,10.239-9.713c4.544-1.377,9.025,3.288,13.736,2.699c6.099-0.762,9.096-9.704,15.238-9.472
				c6.801,0.256,8.048,10.883,14.285,13.605c2.523,1.101,5.409,0.68,8.159,0.787c2.751,0.107,7.347,1.791,7.33,4.56
				c-22.567,0.926-45.622,1.686-67.439,2.042l-11.275-0.066C374.154,104.368,373.397,103.006,374.046,101.947L374.046,101.947z"/>
		</g>
		<g>
			<path style="fill:#FFFDFF;" d="M47.084,399.2c0.824-0.79,2.062-0.94,3.204-0.943c1.142-0.003,2.329,0.092,3.382-0.349
				c2.634-1.103,3.301-5.009,6.022-5.875c2.697-0.859,5.407,1.884,8.21,1.494c3.629-0.505,5.341-5.86,9.004-5.773
				c4.056,0.096,4.888,6.42,8.629,7.99c1.513,0.635,3.229,0.36,4.87,0.401c1.64,0.041,4.394,1.006,4.407,2.657
				c-13.444,0.74-27.18,1.386-40.181,1.78l-6.721,0.055C47.168,400.642,46.706,399.837,47.084,399.2L47.084,399.2z"/>
		</g>
		<g>
			<path style="fill:#FFFDFF;" d="M415.818,320.089c0.824-0.79,2.062-0.94,3.204-0.943c1.142-0.003,2.329,0.092,3.382-0.349
				c2.634-1.103,3.301-5.009,6.022-5.875c2.697-0.859,5.407,1.884,8.21,1.494c3.629-0.505,5.341-5.86,9.004-5.773
				c4.056,0.096,4.888,6.42,8.629,7.99c1.513,0.635,3.229,0.36,4.87,0.401c1.641,0.041,4.394,1.006,4.408,2.657
				c-13.444,0.74-27.18,1.386-40.181,1.78l-6.721,0.055C415.903,321.531,415.44,320.725,415.818,320.089L415.818,320.089z"/>
		</g>
	</g>
	<g>
		<g>
			<polygon style="fill:#FFFDFF;" points="457.339,209.385 439.615,158.502 399.043,171.271 381.783,137.103 341.88,153.087 
				330.365,116.987 265.06,183.326 289.476,216.853 308.939,211.449 327.336,250.91 370.579,253.387 401.688,292.581 			"/>
			<polygon style="fill:#74D8E8;" points="447.831,210.611 402.57,280.255 378.4,244.91 333.771,241.809 318.548,202.18 
				292.893,206.277 279.802,184.158 326.458,134.314 338.675,167.63 373.193,146.961 390.757,180.761 434.166,170.583 			"/>
			<polygon style="fill:#A2CC3C;" points="306.391,155.753 316.373,164.404 315.815,182.045 288.116,198.206 279.802,184.158 			"/>
			<polygon style="fill:#A2CC3C;" points="366.874,244.109 360.733,209.684 375.394,199.305 361.954,186.373 332.137,195.209 
				332.829,210.961 323.822,215.91 333.771,241.809 			"/>
			<polygon style="fill:#A2CC3C;" points="382.483,164.838 372.423,171.696 354.658,158.459 373.193,146.961 			"/>
			<polygon style="fill:#A2CC3C;" points="422.366,175.046 407.835,191.966 411.024,213.588 411.262,229.252 403.7,238.121 
				393.862,240.321 390.785,263.022 397.464,272.789 412.837,264.458 421.725,250.782 448.03,209.149 434.166,170.583 			"/>
			<polygon style="opacity:0.29;fill:#EDF4F2;" points="439.615,158.502 370.579,253.387 401.688,292.581 457.339,209.385 			"/>
			<polygon style="opacity:0.25;fill:#39383D;" points="399.043,171.271 327.336,250.91 370.579,253.387 439.615,158.502 			"/>
			<polygon style="opacity:0.25;fill:#39383D;" points="381.783,137.103 308.939,211.449 289.476,216.853 341.88,153.087 			"/>
		</g>
		<g>
			<g>
				<g>
					
						<rect x="83.604" y="142.089" transform="matrix(0.9883 -0.1525 0.1525 0.9883 -26.5355 20.6724)" style="fill:#F2E1BF;" width="75.866" height="82.572"/>
					
						<rect x="87.509" y="147.472" transform="matrix(0.9883 -0.1525 0.1525 0.9883 -25.5991 20.4463)" style="fill:#6B9F9D;" width="66.046" height="59.367"/>
					<polygon style="fill:#6E8649;" points="89.113,190.089 106.358,166.565 128.608,178.979 140.212,166.889 153.591,174.861 
						157.694,201.458 92.42,211.527 					"/>
					<path style="fill:#F0D09D;" d="M130.11,159.329c0.465,3.016-1.602,5.837-4.618,6.303c-3.016,0.465-5.838-1.602-6.303-4.618
						c-0.465-3.016,1.602-5.838,4.618-6.303C126.823,154.245,129.645,156.313,130.11,159.329z"/>
				</g>
				<g>
					
						<rect x="81.497" y="146.419" transform="matrix(0.8785 -0.4777 0.4777 0.8785 -75.1598 79.8554)" style="fill:#FFFDFF;" width="75.866" height="82.572"/>
					
						<rect x="84.422" y="152.467" transform="matrix(0.8785 -0.4777 0.4777 0.8785 -72.7471 78.2316)" style="fill:#74D8E8;" width="66.046" height="59.367"/>
					<polygon style="fill:#91AF31;" points="91.187,204.989 99.46,177.019 124.597,181.177 131.429,165.875 146.715,168.852 
						159.571,192.495 101.549,224.045 					"/>
					<path style="fill:#FFCF7B;" d="M119.365,162.177c1.458,2.681,0.466,6.035-2.214,7.493c-2.681,1.458-6.036,0.466-7.493-2.214
						c-1.458-2.681-0.466-6.035,2.215-7.493C114.552,158.505,117.907,159.496,119.365,162.177z"/>
				</g>
			</g>
			<g>
				<path style="fill:#EFEBE8;" d="M52.649,218.304l1.569-7.757l129.901,41.157c0,0-26.704,52.241-28.312,53.714
					c-1.608,1.473-113.147-35.447-113.147-35.447L52.649,218.304z"/>
				<g>
					<polygon style="fill:#F25A29;" points="113.112,229.647 104.296,234.688 58.172,225.643 45.863,277.693 156.384,307.698 
						187.22,248.637 113.112,229.647 					"/>
					<path style="fill:#FFF9EE;" d="M78.951,269.223l0.29-8.33l0.928-3.245l7.683,2.057l1.628,4.258l1.111,0.525l0.125-4.668
						l1.603-0.33l-1.073-1.152l1.966-4.247l-0.981-0.299l-4.09,3.265l-7.577-2.283l0.842-3.014l4.239-7.639l-1.603,0.33
						l-8.021,8.919l-5.688-1.252c0,0-2.953-0.144-2.965,0.611c-0.012,0.754,1.961,2.019,1.961,2.019l5.968,1.598l2.478,12.035
						L78.951,269.223z"/>
					<g>
						<path style="fill:#FFF9EE;" d="M113.537,244.119c0.037,0.007-0.025,0.503-0.17,1.394c-0.142,0.891-0.376,2.175-0.687,3.758
							c-0.621,3.165-1.576,7.52-2.796,12.289c-1.222,4.77-2.476,9.049-3.452,12.123c-0.488,1.538-0.899,2.776-1.202,3.626
							c-0.301,0.85-0.485,1.315-0.521,1.304c-0.036-0.011,0.08-0.498,0.319-1.367c0.274-0.97,0.621-2.202,1.036-3.673
							c0.881-3.099,2.074-7.386,3.294-12.147c1.217-4.761,2.23-9.093,2.946-12.234c0.343-1.49,0.63-2.737,0.856-3.719
							C113.368,244.594,113.501,244.112,113.537,244.119z"/>
					</g>
					<g>
						<path style="fill:#FFF9EE;" d="M117.02,248.825c0.037,0.008-0.002,0.368-0.105,1.014c-0.101,0.646-0.269,1.577-0.488,2.725
							c-0.444,2.294-1.098,5.46-2.004,8.914c-0.907,3.454-1.854,6.541-2.553,8.77c-0.352,1.114-0.646,2.013-0.861,2.63
							c-0.215,0.617-0.351,0.954-0.387,0.943c-0.036-0.01,0.032-0.367,0.185-1.003c0.195-0.752,0.427-1.643,0.696-2.678
							c0.651-2.392,1.48-5.435,2.396-8.8c0.903-3.441,1.614-6.584,2.154-8.856C116.588,250.211,116.946,248.81,117.02,248.825z"/>
					</g>
					<g>
						<path style="fill:#FFF9EE;" d="M69.533,240.415c0.006,0.007-0.073,0.086-0.231,0.233c-0.182,0.164-0.416,0.376-0.71,0.641
							c-0.321,0.271-0.705,0.62-1.109,1.083c-0.419,0.448-0.917,0.951-1.378,1.602c-1.007,1.23-2.009,2.925-2.843,5.016
							c-0.822,2.093-1.4,4.64-1.372,7.475c0.037,2.82,0.634,5.951,2.178,8.905c1.546,2.924,3.872,5.777,7.064,7.741
							c1.561,1.024,3.331,1.807,5.21,2.332c0.932,0.302,1.912,0.438,2.892,0.617c0.993,0.078,1.995,0.193,3.011,0.138
							c4.066-0.044,8.218-1.5,11.655-4.093c3.391-2.656,5.865-6.296,6.952-10.215c0.315-0.968,0.461-1.966,0.64-2.946
							c0.079-0.993,0.199-1.976,0.147-2.954c-0.025-1.951-0.328-3.864-0.916-5.635c-1.078-3.59-3.239-6.57-5.669-8.815
							c-2.459-2.25-5.333-3.631-8.048-4.391c-2.733-0.755-5.343-0.85-7.577-0.593c-2.234,0.269-4.13,0.802-5.577,1.46
							c-0.748,0.278-1.361,0.631-1.902,0.92c-0.551,0.272-0.987,0.554-1.331,0.794c-0.332,0.216-0.596,0.388-0.802,0.522
							C69.635,240.367,69.539,240.422,69.533,240.415c-0.006-0.008,0.08-0.078,0.252-0.208c0.198-0.146,0.453-0.333,0.774-0.568
							c0.337-0.256,0.766-0.555,1.313-0.844c0.536-0.307,1.148-0.677,1.897-0.974c1.45-0.694,3.36-1.265,5.625-1.567
							c2.264-0.289,4.921-0.222,7.713,0.524c2.774,0.75,5.719,2.139,8.248,4.426c2.498,2.281,4.724,5.322,5.845,8.999
							c0.61,1.814,0.927,3.775,0.958,5.777c0.055,1.004-0.064,2.012-0.144,3.032c-0.181,1.007-0.33,2.031-0.651,3.026
							c-1.11,4.025-3.649,7.772-7.132,10.498c-3.529,2.665-7.801,4.156-11.975,4.194c-1.043,0.054-2.072-0.064-3.091-0.148
							c-1.006-0.185-2.011-0.328-2.966-0.64c-1.926-0.544-3.74-1.354-5.337-2.409c-3.265-2.027-5.633-4.958-7.196-7.958
							c-1.561-3.031-2.148-6.234-2.16-9.108c-0.004-2.89,0.612-5.475,1.473-7.589c0.873-2.112,1.916-3.811,2.959-5.035
							c0.479-0.648,0.994-1.144,1.428-1.584c0.42-0.455,0.818-0.793,1.153-1.053c0.31-0.249,0.556-0.448,0.748-0.602
							C69.437,240.472,69.527,240.407,69.533,240.415z"/>
					</g>
				</g>
			</g>
		</g>
		<g>
			<g>
				<g>
					<polygon style="fill:#1A7396;" points="124.066,53.378 114.67,36.241 115.446,35.863 124.842,53 					"/>
				</g>
				<g>
					<path style="fill:#0094B2;" d="M131.025,54.106l-8.515,4.801c0,0,46.111,98.073,23.327,165.789l23.933-10.985
						c0,0-11.989-34.767,15.763-48.94c27.213-13.897,53.818,15.748,53.818,15.748l23.363-12.024
						C262.714,168.494,175.184,133.374,131.025,54.106z M163.609,152.613l-2.47-19.936l12.405-6.035l14.627,13.45L163.609,152.613z"
						/>
				</g>
				<g>
					<g>
						<path style="fill:#1A7396;" d="M156.114,220.016c0,0,0.202-0.536,0.442-1.595c0.251-1.055,0.529-2.631,0.815-4.67
							c0.58-4.077,1.131-10.014,1.571-17.362c0.23-3.674,0.422-7.702,0.59-12.028c0.075-2.164,0.153-4.401,0.233-6.705
							c0.033-1.152,0.067-2.321,0.101-3.506c0.001-1.182,0.001-2.381,0.002-3.594c-0.277-9.717-2.161-20.317-4.853-31.25
							c-2.733-10.938-6.024-21.199-9.264-30.447c-3.247-9.248-6.465-17.484-9.267-24.362c-2.806-6.878-5.201-12.398-6.88-16.203
							c-0.834-1.877-1.486-3.347-1.944-4.378c-0.212-0.48-0.378-0.857-0.502-1.14c-0.11-0.258-0.164-0.391-0.154-0.396
							c0.009-0.004,0.081,0.122,0.211,0.372c0.138,0.277,0.323,0.647,0.558,1.117c0.481,0.986,1.178,2.446,2.049,4.337
							c1.747,3.78,4.203,9.281,7.063,16.144c2.855,6.865,6.117,15.093,9.398,24.343c3.273,9.249,6.586,19.521,9.325,30.483
							c2.699,10.957,4.574,21.594,4.822,31.369c-0.005,1.221-0.009,2.427-0.014,3.617c-0.039,1.186-0.077,2.356-0.115,3.509
							c-0.091,2.305-0.179,4.543-0.264,6.708c-0.189,4.327-0.406,8.358-0.664,12.033c-0.496,7.352-1.112,13.292-1.766,17.368
							c-0.323,2.038-0.64,3.613-0.93,4.665c-0.143,0.526-0.271,0.923-0.374,1.185C156.199,219.895,156.123,220.021,156.114,220.016z
							"/>
					</g>
				</g>
				<g>
					<g>
						<path style="fill:#1A7396;" d="M252.012,174.353c-0.003,0.01-0.149-0.029-0.432-0.113c-0.311-0.096-0.725-0.223-1.252-0.386
							c-0.56-0.178-1.237-0.394-2.031-0.646c-0.801-0.261-1.738-0.531-2.739-0.966c-4.091-1.536-9.844-4.175-16.519-8.126
							c-6.672-3.952-14.206-9.268-22.047-15.732c-7.845-6.461-16.027-14.035-24.16-22.375
							c-16.254-16.716-29.417-33.103-38.576-45.17c-4.582-6.037-8.144-11.019-10.565-14.486c-1.212-1.732-2.13-3.092-2.746-4.018
							c-0.291-0.446-0.519-0.797-0.69-1.059c-0.152-0.241-0.224-0.367-0.215-0.373c0.009-0.005,0.099,0.111,0.268,0.341
							c0.184,0.255,0.429,0.595,0.74,1.028c0.669,0.931,1.622,2.259,2.84,3.957c2.48,3.427,6.093,8.371,10.717,14.373
							c9.242,11.998,22.446,28.328,38.674,45.018c8.121,8.327,16.275,15.898,24.081,22.365c7.803,6.471,15.287,11.804,21.909,15.787
							c6.624,3.982,12.327,6.667,16.379,8.262c0.992,0.449,1.919,0.736,2.712,1.012c0.785,0.272,1.454,0.505,2.008,0.697
							c0.519,0.185,0.926,0.331,1.232,0.44C251.875,174.286,252.016,174.343,252.012,174.353z"/>
					</g>
				</g>
				<g>
					<polygon style="fill:#1A7396;" points="187.546,120.241 145.199,140.843 142.595,136.094 184.942,115.492 					"/>
				</g>
				<g>
					<polygon style="fill:#1A7396;" points="209.836,136.059 146.796,166.727 143.182,160.137 206.222,129.468 					"/>
				</g>
				<g>
					<path style="fill:#1A7396;" d="M116.3,51.392l7.126,12.996l11.549-5.619l-7.126-12.996
						C127.849,45.774,118.225,50.456,116.3,51.392z"/>
				</g>
				<g>
					<g>
						<path style="fill:#1A7396;" d="M241.715,179.673c-0.009,0.005-0.079-0.079-0.212-0.247c-0.153-0.194-0.348-0.439-0.589-0.745
							c-0.522-0.652-1.299-1.608-2.36-2.793c-2.127-2.355-5.365-5.685-10.02-9.061c-4.634-3.33-10.81-6.797-18.43-8.18
							c-3.785-0.696-7.88-0.85-12.035-0.3c-4.158,0.535-8.346,1.793-12.361,3.607c-4.018,1.81-7.67,4.125-10.656,6.899
							c-2.998,2.762-5.319,5.951-6.945,9.243c-1.646,3.29-2.566,6.68-3.061,9.883c-0.495,3.209-0.564,6.247-0.427,9.006
							c0.292,5.527,1.348,9.931,2.178,12.923c0.42,1.498,0.807,2.646,1.073,3.423c0.126,0.362,0.228,0.653,0.308,0.882
							c0.069,0.199,0.102,0.302,0.092,0.306c-0.01,0.004-0.062-0.092-0.15-0.285c-0.088-0.193-0.214-0.482-0.366-0.865
							c-0.305-0.766-0.729-1.907-1.186-3.402c-0.903-2.984-2.029-7.395-2.379-12.962c-0.165-2.779-0.121-5.845,0.358-9.095
							c0.479-3.243,1.392-6.685,3.051-10.037c1.638-3.352,3.992-6.607,7.036-9.423c3.033-2.828,6.741-5.182,10.809-7.014
							c4.064-1.836,8.314-3.11,12.54-3.646c4.222-0.551,8.387-0.383,12.226,0.338c7.731,1.435,13.95,4.983,18.585,8.378
							c4.657,3.443,7.861,6.832,9.94,9.24c1.037,1.211,1.786,2.192,2.277,2.867c0.247,0.337,0.424,0.601,0.541,0.779
							C241.671,179.572,241.724,179.667,241.715,179.673z"/>
					</g>
				</g>
			</g>
			<g>
				<path style="fill:#1A7396;" d="M159.709,99.711c0.039,0.009-0.027,0.453-0.181,1.248c-0.184,0.906-0.413,2.03-0.683,3.36
					c-0.584,2.835-1.376,6.753-2.199,11.09c-0.827,4.338-1.566,8.27-2.152,11.107c-0.292,1.419-0.54,2.565-0.728,3.354
					c-0.188,0.789-0.31,1.222-0.349,1.215c-0.04-0.007,0.008-0.453,0.127-1.254c0.147-0.913,0.33-2.044,0.546-3.384
					c0.482-2.853,1.156-6.795,1.984-11.137c0.824-4.342,1.682-8.255,2.369-11.073c0.346-1.408,0.64-2.545,0.865-3.326
					C159.529,100.13,159.67,99.702,159.709,99.711z"/>
			</g>
			<g>
				<path style="fill:#1A7396;" d="M177.54,119.859c-0.053,0.143-7.138-2.081-15.824-4.966c-8.689-2.887-15.687-5.342-15.634-5.485
					c0.053-0.143,7.137,2.08,15.825,4.967C170.593,117.26,177.593,119.716,177.54,119.859z"/>
			</g>
			<g>
				<path style="fill:#1A7396;" d="M145.943,82.901c0.04-0.003,0.111,0.371,0.205,1.052c0.095,0.68,0.205,1.667,0.318,2.889
					c0.227,2.443,0.444,5.826,0.524,9.567c0.077,3.742,0.001,7.131-0.124,9.579c-0.062,1.224-0.13,2.214-0.197,2.897
					c-0.065,0.683-0.121,1.059-0.161,1.058c-0.084-0.004-0.072-1.519-0.053-3.966c0.02-2.447,0.03-5.826-0.047-9.558
					c-0.079-3.731-0.231-7.107-0.352-9.552C145.935,84.422,145.859,82.907,145.943,82.901z"/>
			</g>
			<g>
				<path style="fill:#1A7396;" d="M159.436,99.435c-0.048,0.066-1.227-0.624-3.132-1.734c-1.905-1.111-4.545-2.628-7.51-4.225
					c-2.966-1.596-5.694-2.97-7.676-3.952c-1.982-0.983-3.211-1.59-3.175-1.662c0.032-0.065,1.323,0.418,3.357,1.315
					c2.034,0.896,4.803,2.221,7.781,3.823c2.976,1.604,5.593,3.18,7.446,4.377C158.38,98.572,159.479,99.376,159.436,99.435z"/>
			</g>
			<g>
				<path style="fill:#1A7396;" d="M138.257,70.986c0.161,0.004,0.184,3.859,0.051,8.609c-0.132,4.752-0.37,8.599-0.53,8.594
					c-0.16-0.004-0.184-3.859-0.051-8.61C137.859,74.829,138.097,70.981,138.257,70.986z"/>
			</g>
			<g>
				<path style="fill:#1A7396;" d="M146.087,83.049c-0.108,0.13-2.909-1.884-6.669-3.898c-3.751-2.031-7.012-3.281-6.948-3.435
					c0.027-0.067,0.879,0.161,2.209,0.659c1.329,0.496,3.128,1.279,5.027,2.3c1.897,1.023,3.526,2.087,4.656,2.914
					C145.491,82.416,146.133,82.993,146.087,83.049z"/>
			</g>
		</g>
		<path style="fill:#E2871C;" d="M70.88,323.381c0,0,13.927,7.295,33.491,5.637c19.564-1.658,73.945-15.917,73.614,8.621
			l-2.819,20.365c0,0-52.626,22.686-99.644,13.125l8.621-18.901L70.88,323.381z"/>
		<g>
			<path style="fill:#AD6415;" d="M116.645,352.474c-1.128-3.905,1.11-8.249,4.554-10.407c3.444-2.159,7.791-2.435,11.792-1.72
				c4.001,0.714,7.773,2.331,11.58,3.754c5.947,2.223,12.263,4.015,18.573,3.319c6.31-0.697,12.63-4.372,14.867-10.313
				l-2.845,20.898l-55.587,7.852L116.645,352.474z"/>
		</g>
		<g>
			<g>
				<path style="fill:#9C5747;" d="M272.666,174.932c0,0-3.619-55.725,38.356-86.845l3.619,2.895c0,0-39.804,21.711-33.29,83.226
					L272.666,174.932z"/>
				<path style="fill:#A2CC3C;" d="M317.38,77.387c0,0-10.856-15.922-47.041-3.619c0,0,31.843,4.342,40.528,8.684
					c0,0-23.159-7.237-36.185,5.79l37.633,1.447l-1.447,31.843c0,0,9.408-4.342,10.132-28.224l13.75,23.882
					c0,0,15.198-12.303-2.171-29.672c0,0,18.093-2.895,27.501,4.342c0,0,0.724-16.645-28.225-11.579l10.132-28.948
					C341.986,51.333,324.617,46.991,317.38,77.387z"/>
			</g>
		</g>
		<g>
			<polygon style="fill:#FFCF83;" points="250.794,51.736 252.402,66.136 259.399,65.625 273.136,171.961 237.039,177.719 
				221.863,69.519 227.984,68.976 225.721,55.258 			"/>
			<path style="fill:#FFB000;" d="M243.746,57.736l1.413,9.214l4.553-0.698l-1.413-9.214c-0.193-1.257-1.368-2.12-2.625-1.928l0,0
				C244.416,55.303,243.553,56.478,243.746,57.736z"/>
			<path style="fill:#FFB000;" d="M236.541,58.556l1.413,9.214l4.553-0.698l-1.413-9.214c-0.193-1.257-1.368-2.12-2.626-1.927l0,0
				C237.211,56.123,236.348,57.299,236.541,58.556z"/>
			<path style="fill:#FFB000;" d="M229.338,59.413l1.413,9.214l4.553-0.698l-1.413-9.214c-0.193-1.257-1.368-2.12-2.626-1.927l0,0
				C230.008,56.98,229.145,58.155,229.338,59.413z"/>
			<g>
				<path style="fill:#FFB000;" d="M221.863,69.519c0.019,0.183,8.469-0.542,18.871-1.619c10.406-1.078,18.824-2.099,18.805-2.283
					c-0.019-0.183-8.467,0.542-18.873,1.62C230.263,68.314,221.844,69.336,221.863,69.519z"/>
			</g>
			<path style="fill:#FFB000;" d="M250.667,75.257l1.133,9.252l4.572-0.56l-1.133-9.253c-0.155-1.263-1.304-2.161-2.566-2.006l0,0
				C251.41,72.846,250.512,73.994,250.667,75.257z"/>
			<path style="fill:#FFB000;" d="M242.908,75.871l1.133,9.253l4.572-0.56l-1.133-9.253c-0.155-1.262-1.303-2.161-2.566-2.006l0,0
				C243.651,73.46,242.753,74.608,242.908,75.871z"/>
			<path style="fill:#FFB000;" d="M235.015,76.751l1.133,9.252l4.572-0.56l-1.133-9.253c-0.154-1.263-1.303-2.161-2.566-2.006l0,0
				C235.758,74.339,234.86,75.488,235.015,76.751z"/>
			<path style="fill:#FFB000;" d="M227.404,77.694l1.133,9.253l4.572-0.56l-1.133-9.253c-0.154-1.262-1.303-2.161-2.566-2.006l0,0
				C228.147,75.283,227.249,76.431,227.404,77.694z"/>
			<g>
				<path style="fill:#FFB000;" d="M224.551,92.053c0.026,0.182,8.507-0.872,18.94-2.355c10.437-1.483,18.874-2.833,18.848-3.015
					c-0.026-0.182-8.505,0.872-18.942,2.355C232.964,90.521,224.525,91.871,224.551,92.053z"/>
			</g>
			<path style="fill:#FFB000;" d="M253.208,94.088l1.133,9.253l4.572-0.56l-1.133-9.253c-0.155-1.262-1.304-2.161-2.566-2.006l0,0
				C253.952,91.677,253.053,92.826,253.208,94.088z"/>
			<path style="fill:#FFB000;" d="M245.449,94.702l1.133,9.253l4.572-0.56l-1.133-9.253c-0.155-1.262-1.303-2.161-2.566-2.006l0,0
				C246.193,92.291,245.295,93.44,245.449,94.702z"/>
			<path style="fill:#FFB000;" d="M237.556,95.582l1.133,9.253l4.572-0.56l-1.133-9.253c-0.155-1.263-1.304-2.161-2.566-2.006l0,0
				C238.3,93.171,237.401,94.319,237.556,95.582z"/>
			<path style="fill:#FFB000;" d="M229.945,96.525l1.133,9.253l4.572-0.56l-1.133-9.253c-0.155-1.263-1.304-2.161-2.566-2.006l0,0
				C230.688,94.114,229.79,95.263,229.945,96.525z"/>
			<g>
				<path style="fill:#FFB000;" d="M227.092,110.885c0.026,0.182,8.507-0.872,18.94-2.355c10.437-1.483,18.874-2.833,18.848-3.015
					c-0.026-0.182-8.505,0.872-18.942,2.355C235.505,109.352,227.066,110.702,227.092,110.885z"/>
			</g>
			<path style="fill:#FFB000;" d="M256.001,115.013l1.133,9.253l4.572-0.56l-1.133-9.253c-0.155-1.262-1.303-2.161-2.566-2.006l0,0
				C256.744,112.602,255.846,113.751,256.001,115.013z"/>
			<path style="fill:#FFB000;" d="M248.242,115.628l1.133,9.253l4.572-0.56l-1.133-9.252c-0.155-1.263-1.303-2.161-2.566-2.006l0,0
				C248.985,113.216,248.087,114.365,248.242,115.628z"/>
			<path style="fill:#FFB000;" d="M240.348,116.507l1.133,9.253l4.572-0.56l-1.133-9.253c-0.155-1.263-1.303-2.161-2.566-2.006l0,0
				C241.092,114.096,240.194,115.245,240.348,116.507z"/>
			<path style="fill:#FFB000;" d="M232.737,117.451l1.133,9.253l4.572-0.56l-1.133-9.253c-0.155-1.263-1.303-2.161-2.566-2.006l0,0
				C233.481,115.039,232.583,116.188,232.737,117.451z"/>
			<g>
				<path style="fill:#FFB000;" d="M229.885,131.81c0.026,0.182,8.507-0.872,18.94-2.355c10.437-1.483,18.874-2.833,18.848-3.015
					c-0.026-0.182-8.505,0.872-18.942,2.355C238.298,130.278,229.859,131.628,229.885,131.81z"/>
			</g>
			<path style="fill:#FFB000;" d="M258.856,133.956l1.133,9.253l4.572-0.56l-1.133-9.253c-0.155-1.262-1.303-2.161-2.566-2.006l0,0
				C259.6,131.545,258.702,132.694,258.856,133.956z"/>
			<path style="fill:#FFB000;" d="M251.097,134.57l1.133,9.253l4.572-0.56l-1.133-9.252c-0.155-1.263-1.303-2.161-2.566-2.006l0,0
				C251.841,132.159,250.943,133.308,251.097,134.57z"/>
			<path style="fill:#FFB000;" d="M243.204,135.45l1.133,9.253l4.572-0.56l-1.133-9.253c-0.155-1.262-1.304-2.161-2.566-2.006l0,0
				C243.948,133.039,243.049,134.188,243.204,135.45z"/>
			<path style="fill:#FFB000;" d="M235.593,136.393l1.133,9.253l4.572-0.56l-1.133-9.253c-0.155-1.263-1.304-2.161-2.566-2.006l0,0
				C236.336,133.982,235.438,135.131,235.593,136.393z"/>
			<g>
				<path style="fill:#FFB000;" d="M232.74,150.753c0.026,0.182,8.507-0.872,18.94-2.355c10.437-1.483,18.874-2.833,18.848-3.015
					c-0.026-0.182-8.505,0.872-18.942,2.355C241.153,149.22,232.714,150.57,232.74,150.753z"/>
			</g>
			<path style="fill:#FFB000;" d="M260.953,152.568l1.133,9.253l4.572-0.56l-1.133-9.253c-0.155-1.263-1.303-2.161-2.566-2.006l0,0
				C261.696,150.157,260.798,151.306,260.953,152.568z"/>
			<path style="fill:#FFB000;" d="M253.194,153.182l1.133,9.253l4.572-0.56l-1.133-9.253c-0.155-1.262-1.304-2.161-2.566-2.006l0,0
				C253.937,150.771,253.039,151.92,253.194,153.182z"/>
			<path style="fill:#FFB000;" d="M245.301,154.062l1.133,9.253l4.572-0.56l-1.133-9.253c-0.154-1.263-1.304-2.161-2.566-2.006l0,0
				C246.044,151.651,245.146,152.8,245.301,154.062z"/>
			<path style="fill:#FFB000;" d="M237.689,155.005l1.133,9.253l4.572-0.56l-1.133-9.253c-0.155-1.263-1.304-2.161-2.566-2.006l0,0
				C238.433,152.594,237.535,153.743,237.689,155.005z"/>
			<g>
				<path style="fill:#FFB000;" d="M234.837,169.365c0.026,0.182,8.507-0.872,18.94-2.355c10.437-1.483,18.874-2.833,18.848-3.015
					c-0.026-0.182-8.505,0.872-18.942,2.355C243.25,167.833,234.811,169.183,234.837,169.365z"/>
			</g>
		</g>
		<path style="fill:#E2871C;" d="M421.24,395.48c0,0-13.927-7.295-33.491-5.637c-19.564,1.658-73.945,15.916-73.614-8.621
			l2.819-20.365c0,0,52.626-22.686,99.644-13.125l-8.621,18.901L421.24,395.48z"/>
		<g>
			<path style="fill:#AD6415;" d="M375.475,366.387c1.128,3.905-1.11,8.249-4.554,10.407c-3.444,2.158-7.791,2.435-11.792,1.72
				c-4.001-0.714-7.773-2.331-11.58-3.754c-5.947-2.223-12.263-4.015-18.574-3.319c-6.31,0.697-12.63,4.372-14.867,10.313
				l2.845-20.898l55.587-7.852L375.475,366.387z"/>
		</g>
		<g style="opacity:0.35;">
			<path style="fill:#5BB3FC;" d="M216.798,379.042c0.063-0.026,0.303,0.268,0.41,0.945c0.098,0.662,0,1.741-0.758,2.803
				c-0.373,0.524-0.919,1.035-1.657,1.375c-0.729,0.354-1.687,0.44-2.594,0.181c-0.904-0.268-1.752-0.845-2.374-1.676
				c-0.621-0.819-1.022-1.952-0.851-3.155c0.058-0.409,0.437-0.693,0.846-0.635c0.194,0.028,0.36,0.127,0.475,0.268l0.011,0.013
				c1.017,1.254,1.025,3.137-0.051,4.479c-1.147,1.384-3.232,1.585-4.73,0.634c-0.955-0.589-1.492-1.656-1.594-2.653
				c-0.103-1.008,0.173-2.041,0.818-2.822l0.011-0.013c0.276-0.335,0.771-0.382,1.105-0.106c0.15,0.124,0.242,0.293,0.274,0.471
				c0.491,2.816-1.579,5.322-3.889,5.627c-2.267,0.347-4.239-0.915-4.924-2.398c-0.718-1.477-0.487-2.822-0.178-3.583
				c0.322-0.787,0.712-1.07,0.771-1.022c0.094,0.061-0.122,0.442-0.245,1.174c-0.124,0.71-0.133,1.855,0.539,2.937
				c0.612,1.063,2.172,1.876,3.791,1.542c0.791-0.158,1.514-0.647,2.019-1.384c0.497-0.734,0.742-1.7,0.561-2.592l1.39,0.352
				c-0.335,0.42-0.503,1.036-0.435,1.639c0.077,0.602,0.37,1.159,0.866,1.46c0.824,0.543,2.094,0.4,2.626-0.287
				c0.603-0.684,0.618-1.876,0.106-2.499l1.331-0.354c-0.265,1.465,0.896,2.968,2.12,3.374c1.245,0.465,2.471-0.15,3.145-0.92
				c0.703-0.778,0.93-1.64,0.988-2.215C216.772,379.415,216.703,379.073,216.798,379.042z"/>
		</g>
		<g>
			<path style="fill:#48ADBE;" d="M252.057,375.503c0.066-0.102,0.111-0.218,0.132-0.338c0.491-2.831,1.009-5.737,2.491-8.199
				c1.482-2.462,4.166-4.419,7.03-4.186c3.872,0.314,7.544-1.574,10.969-3.407c2.022-1.082,4.467,1.405,4.215,3.685
				c-0.252,2.279-2.112,4.013-3.936,5.402c-6.461,4.922-14.058,8.341-22.026,9.915"/>
		</g>
		<g>
			<path style="fill:#E08237;" d="M342.278,253.986c-0.388,0.648-6.012-2.013-12.716-5.665c-6.703-3.66-11.984-6.947-11.649-7.624
				c0.328-0.666,6.192,1.552,12.948,5.242C337.619,249.62,342.66,253.349,342.278,253.986z"/>
		</g>
		<g>
			<g>
				<defs>
					<circle id="SVGID_1_" cx="250.586" cy="290.01" r="130.563"/>
				</defs>
				<clipPath id="SVGID_00000039094827150662790760000012588812276632701343_">
					<use xlink:href="#SVGID_1_"  style="overflow:visible;"/>
				</clipPath>
				
					<circle style="clip-path:url(#SVGID_00000039094827150662790760000012588812276632701343_);fill:#E1FEFF;" cx="250.586" cy="290.01" r="130.563"/>
				<path style="clip-path:url(#SVGID_00000039094827150662790760000012588812276632701343_);fill:#0094B2;" d="M380.484,237.31
					c-0.922,8.768-1.919,17.788-6.079,25.56c-2.392,4.469-5.845,8.595-6.519,13.618c-0.489,3.646,0.566,7.299,0.969,10.956
					c0.403,3.657-0.042,7.798-2.797,10.236c-5.883-8.601-10.619-17.985-14.045-27.827c-5.066,0.856-8.87,4.949-12.264,8.806
					c-1.074,1.22-2.147,2.44-3.221,3.66c-1.327,1.508-2.682,3.061-3.388,4.941c-1.187,3.161-0.467,7.037-2.548,9.697
					c-3.473-7.907-7.428-15.603-11.835-23.029c-0.897-1.512-1.859-3.061-3.322-4.036c-1.102-0.734-2.407-1.085-3.626-1.6
					c-2.946-1.244-5.447-3.515-6.969-6.329c-0.485-0.897-0.912-1.891-1.755-2.464c-1.697-1.153-3.928-0.022-5.919,0.474
					c-2.517,0.627-5.296,0.11-7.42-1.38c-1.292-0.906-2.353-2.151-3.771-2.843c-3.247-1.585-7.56,0.082-10.509-2.006
					c-1.423-1.008-2.217-2.713-3.605-3.77c-1.387-1.057-3.981-0.905-4.27,0.815c-0.131,0.777,0.286,1.531,0.687,2.21
					c1.687,2.852,3.527,5.851,6.484,7.347c2.957,1.496,7.333,0.668,8.42-2.463c2.653,2.633,5.306,5.267,7.959,7.901
					c0.729,0.723,1.486,1.495,1.755,2.486c0.482,1.779-0.75,3.535-1.97,4.917c-6.98,7.91-16.081,13.93-26.091,17.26
					c-0.537,0.179-1.123,0.35-1.658,0.164c-0.709-0.246-1.068-1.015-1.357-1.707c-5.682-13.587-13.654-26.215-23.477-37.188
					c-1.951,5.692,4.961,10.716,5.466,16.712c0.17,2.026-0.417,4.081-0.08,6.087c0.714,4.251,5.068,6.667,8.554,9.201
					c3.837,2.79,7.104,6.388,11.274,8.651c4.17,2.263,9.813,2.853,13.336-0.324c2.395,2.96,0.27,7.32-1.983,10.39
					c-5.214,7.106-11.067,13.742-17.465,19.804c-2.189,2.073-4.512,4.18-5.637,6.976c-1.661,4.127-0.374,8.762,0.317,13.157
					c0.691,4.395,0.408,9.645-3.201,12.246c-2.222,1.601-5.743,2.402-5.973,5.132c-0.255,3.023,4.155,5.802,2.445,8.307
					c-0.49,0.717-1.354,1.067-2.01,1.637c-1.664,1.448-1.702,3.96-2.411,6.048c-1.597,4.706-6.72,7.248-11.582,8.278
					c-2.062,0.436-4.25,0.684-6.243-0.002c-5.571-1.919-6.486-9.442-10.522-13.734c-2.672-2.841-6.598-4.11-9.7-6.473
					c-3.102-2.364-5.315-6.996-2.937-10.087l0.591-7.733c1.36-6.463-0.812-13.559-5.557-18.153
					c-2.226-2.155-5.057-3.913-6.232-6.779c-1.497-3.652-0.202-8.761-3.467-10.977c-0.949-0.644-2.109-0.87-3.216-1.167
					c-2.308-0.619-4.512-1.604-6.846-2.119c-6.34-1.399-13.416,0.691-19.188-2.282c-4.384-2.257-6.945-6.957-8.554-11.618
					c-3.751-10.863-3.395-23.758,3.557-32.909c3.074-4.046,7.238-7.151,10.389-11.136c2.481-3.138,4.337-6.819,7.35-9.451
					c6.286-5.489,15.64-4.973,23.944-4.144c-1.962,1.823,0.02,5.283,2.546,6.173c2.526,0.89,5.378,0.457,7.889,1.387
					c3.925,1.454,7.734,6.086,11.267,3.84c1.095-0.696,1.794-1.966,3.001-2.442c0.834-0.329,1.768-0.218,2.657-0.102
					c4.449,0.579,8.897,1.158,13.346,1.737c2.09,0.272,4.314,0.525,6.22-0.372c3.564-1.677,3.958-7.551,0.65-9.689
					c-2.008-1.298-4.577-1.171-6.969-1.165c-2.391,0.006-5.055-0.279-6.63-2.079s-0.746-5.452,1.645-5.463
					c-3.094-1.156-7.754-1.574-8.57,1.627c-0.162,0.636-0.111,1.32-0.339,1.936c-0.782,2.119-4.16,1.757-5.575-0.003
					s-1.635-4.165-2.441-6.274c-0.806-2.109-2.846-4.193-5.016-3.567c-0.715,0.206-1.329,0.692-1.781,1.284
					c3.685,1.672,2.996,8.295-0.953,9.173c0.401-4.569-2.298-9.252-6.453-11.195c-4.154-1.943-9.478-1.014-12.729,2.222
					c-4.553,4.533-5.933,13.249-12.318,13.966c-3.616,0.406-7.144-2.822-7.264-6.459c-0.12-3.637,2.981-7.017,6.597-7.427
					c2.04-0.231,4.419,0.255,5.904-1.163c1.814-1.731,0.848-4.952,2.214-7.054c0.62-0.955,1.647-1.555,2.635-2.12
					c4.128-2.36,8.257-4.72,12.385-7.08c1.633-0.934,3.297-1.879,5.133-2.292c1.712-0.385,3.49-0.287,5.244-0.363
					c7.802-0.335,15.368-4.345,20.026-10.613c-1.479,0.757-3.367,0.639-4.74-0.296c1.172-0.865,2.345-1.73,3.518-2.595
					c0.447-0.329,0.912-0.682,1.137-1.189c0.692-1.563-1.582-3.063-3.183-2.463c-1.601,0.6-2.498,2.251-3.408,3.699
					c-1.472,2.342-3.318,4.449-5.446,6.216c-1.591,1.321-3.487,2.498-5.555,2.441c-2.067-0.056-4.176-1.838-3.881-3.885
					c-0.518,1.753-3.597,0.363-3.355-1.448c0.242-1.811,2.11-2.874,3.762-3.655c8.337-3.945,16.766-7.921,25.782-9.867
					c3.988-0.861,9.417-0.486,10.501,3.446c-1.385,0.348-2.649,1.16-3.54,2.276c1.817,2.173,5.275,1.417,7.927,0.424
					c8.628-3.232,18.764-6.873,26.508-1.879c-1.747-2.792,0.073-6.722,2.959-8.309c2.886-1.587,6.39-1.432,9.659-1.036
					c3.773,0.456,7.509,1.175,11.241,1.893c4.84,0.931,9.679,1.863,14.519,2.794c0.229-2.535,3.813-3.103,6.198-2.213
					c2.385,0.89,4.802,2.528,7.25,1.831C347.476,194.427,367.323,213.84,380.484,237.31z"/>
				<path style="clip-path:url(#SVGID_00000039094827150662790760000012588812276632701343_);fill:#0094B2;" d="M141.474,214.884
					c-1.58,1.806-0.187,4.943,2.073,5.749c2.26,0.807,4.789-0.098,6.8-1.408c2.011-1.31,3.757-3.029,5.895-4.118
					c2.138-1.088,4.628-1.526,6.501-3.025c1.484-1.187,2.417-2.914,3.278-4.607c4.054-7.967,7.412-16.289,10.021-24.839
					c-3.614-1.764-7.798,0.592-11.114,2.868c-10.164,6.976-21.03,15.014-24.058,26.964c-0.338,1.333-0.312,3.167,0.995,3.597"/>
			</g>
			<path style="fill:#FFCF6E;" d="M199.119,265.877c0-0.023,0.003-0.047,0.003-0.07h-0.007c-0.072-3.645-3.044-6.58-6.707-6.58
				c-3.537,0-6.428,2.736-6.688,6.207l-0.005-0.001c0,0-0.01,0.12-0.012,0.339c-0.001,0.057-0.009,0.112-0.009,0.169
				c0,0.281,0.023,0.557,0.057,0.829c0.214,2.294,1.33,7.265,6.657,12.732c0,0,5.894-6.212,6.636-12.591
				c0.046-0.318,0.078-0.64,0.078-0.97C199.122,265.919,199.119,265.898,199.119,265.877z M192.408,261.739
				c2.321,0,4.202,1.881,4.202,4.202c0,2.321-1.881,4.202-4.202,4.202s-4.202-1.882-4.202-4.202
				C188.206,263.62,190.087,261.739,192.408,261.739z"/>
			<path style="fill:#FFCF6E;" d="M269.292,196.021c0.001-0.026,0.003-0.053,0.004-0.079h-0.008
				c-0.082-4.124-3.444-7.443-7.587-7.443c-4.001,0-7.272,3.096-7.566,7.021l-0.006-0.001c0,0-0.012,0.135-0.014,0.383
				c-0.002,0.064-0.01,0.127-0.01,0.192c0,0.318,0.026,0.63,0.064,0.938c0.242,2.595,1.505,8.219,7.531,14.404
				c0,0,6.668-7.027,7.507-14.244c0.052-0.359,0.088-0.724,0.088-1.098C269.295,196.069,269.292,196.045,269.292,196.021z
				 M261.7,191.339c2.625,0,4.754,2.128,4.754,4.754c0,2.625-2.129,4.754-4.754,4.754c-2.626,0-4.754-2.129-4.754-4.754
				C256.946,193.468,259.074,191.339,261.7,191.339z"/>
			<path style="fill:#FFCF6E;" d="M274.046,268.843c0.001-0.026,0.003-0.053,0.004-0.079h-0.008
				c-0.082-4.124-3.444-7.443-7.587-7.443c-4.001,0-7.272,3.096-7.566,7.021l-0.005-0.001c0,0-0.012,0.135-0.014,0.383
				c-0.002,0.064-0.01,0.127-0.01,0.192c0,0.318,0.026,0.63,0.064,0.938c0.243,2.595,1.505,8.219,7.531,14.404
				c0,0,6.668-7.027,7.507-14.244c0.052-0.359,0.088-0.724,0.088-1.098C274.049,268.891,274.046,268.867,274.046,268.843z
				 M266.454,264.162c2.625,0,4.754,2.128,4.754,4.754c0,2.626-2.128,4.754-4.754,4.754c-2.626,0-4.754-2.128-4.754-4.754
				C261.7,266.29,263.828,264.162,266.454,264.162z"/>
		</g>
		<g>
			<g style="opacity:0.25;">
				<path style="fill:#39383D;" d="M293.033,229.031c3.121,12.434,11.352,23.504,22.361,30.073c-2.783,2.4-6.819,2.391-10.483,2.663
					c-3.665,0.272-7.861,1.365-9.35,4.725c-1.181,2.665-0.109,5.904,1.874,8.041c1.983,2.137,4.715,3.397,7.397,4.538
					c13.535,5.758,27.773,9.861,42.296,12.189c5.435,0.871,11.158,1.59,15.631,4.797c3.303,2.367,5.582,5.861,8.268,8.909
					c2.686,3.049,6.18,5.836,10.242,5.942c-1.371-5.583,0.119-11.408,1.04-17.083c0.921-5.675,1.113-12.007-2.338-16.605
					c-2.355-3.138-6.026-4.94-9.442-6.868c-12.17-6.866-22.496-16.504-33.565-25.033c-11.069-8.529-23.454-16.184-37.308-18.01"/>
			</g>
			<g>
				<polygon style="fill:#F25A29;" points="323.991,219.788 316.078,221.016 317.561,230.144 324.663,223.272 				"/>
				<path style="fill:#F25A29;" d="M388.136,251.995c-4.397,2.07-15.768,7.153-15.768,7.153l25.576,11.347l-4.098-15.819
					c-0.304-1.173-1.111-2.152-2.206-2.673l0,0C390.531,251.475,389.249,251.471,388.136,251.995z"/>
				<path style="fill:#FFFDFF;" d="M301.045,191.579c-1.041,1.262-6.689,39.89-6.689,39.89s9.844,4.248,14.28,13.393
					c4.436,9.145,56.059,36.984,77.067,47.689c22.26,11.343,56.525,22.522,49.82,6.143c-6.705-16.379-21.854-22.411-33.175-28.174
					c-11.321-5.763-79.087-34.215-81.332-38.731c-1.437-2.893-5.55-16.821-8.322-26.465
					C310.957,199.285,306.718,194.28,301.045,191.579L301.045,191.579z"/>
				<path style="fill:#F25A29;" d="M302.384,222.917c-2.159-0.081-28.878-4.893-28.878-4.893l0,0
					c4.834,4.311,10.807,7.138,17.205,8.143l16.371,2.573L302.384,222.917z"/>
				<path style="fill:#F25A29;" d="M353.587,265.361c-1.079-0.181-53.356-0.925-51.863,3.283c0.654,1.842,2.872,3.408,5.162,4.588
					c2.922,1.506,6.112,2.413,9.37,2.857c5.223,0.713,15.871,2.145,27.281,3.561c19.714,2.446,41.704,4.843,41.936,3.393
					c0.421-2.632,1.559-2.922-6.729-7.202C370.455,271.561,353.587,265.361,353.587,265.361z"/>
				<g>
					<path style="fill:#6B9F9D;" d="M424.768,294.017c-0.054,0.172-2.19-0.35-4.681-1.402c-2.494-1.047-4.361-2.211-4.275-2.369
						c0.088-0.167,2.071,0.72,4.535,1.753C422.806,293.039,424.826,293.837,424.768,294.017z"/>
				</g>
				<g>
					<path style="fill:#6B9F9D;" d="M431.996,295.567c-0.043,0.179-1.191,0.064-2.566-0.258c-1.375-0.322-2.455-0.729-2.414-0.909
						c0.042-0.18,1.191-0.065,2.566,0.258C430.958,294.98,432.038,295.386,431.996,295.567z"/>
				</g>
				<g>
					<path style="fill:#EE5F53;" d="M402.034,283.779c-0.074,0.169-0.923-0.037-1.898-0.461c-0.975-0.424-1.705-0.905-1.631-1.074
						c0.074-0.169,0.923,0.037,1.898,0.462C401.378,283.129,402.108,283.61,402.034,283.779z"/>
				</g>
				<g>
					<path style="fill:#93562C;" d="M386.486,280.889c-0.002,0.023-0.303,0.022-0.872-0.002c-0.638-0.035-1.465-0.079-2.491-0.134
						c-2.242-0.152-5.348-0.361-9.153-0.618c-7.726-0.566-18.394-1.323-30.176-2.326c-11.785-1.004-22.412-2.597-29.947-4.487
						c-3.779-0.916-6.726-2.183-8.522-3.432c-0.913-0.602-1.532-1.187-1.951-1.576c-0.395-0.416-0.594-0.641-0.576-0.657
						c0.05-0.054,0.843,0.87,2.669,2.015c1.811,1.162,4.728,2.339,8.492,3.19c7.528,1.764,18.126,3.279,29.895,4.281
						c11.739,0.981,22.366,1.869,30.153,2.52c3.798,0.345,6.899,0.626,9.136,0.829c1.022,0.108,1.846,0.193,2.481,0.26
						C386.19,280.82,386.487,280.866,386.486,280.889z"/>
				</g>
				<g>
					<path style="fill:#EE5F53;" d="M395.518,280.587c-0.005,0.01-0.1-0.022-0.28-0.095c-0.217-0.092-0.478-0.203-0.795-0.338
						c-0.746-0.334-1.757-0.787-3.031-1.359c-2.676-1.233-6.451-2.973-11.092-5.112c-9.387-4.398-22.264-10.431-36.489-17.094
						c-7.12-3.35-13.896-6.573-19.965-9.695c-6.064-3.131-11.431-6.141-15.804-8.886c-4.377-2.739-7.805-5.135-10.099-6.888
						c-1.167-0.851-2.021-1.577-2.619-2.046c-0.267-0.221-0.485-0.401-0.666-0.55c-0.148-0.127-0.22-0.197-0.213-0.205
						c0.007-0.009,0.094,0.042,0.255,0.151c0.192,0.135,0.424,0.298,0.706,0.497c0.623,0.434,1.502,1.127,2.69,1.943
						c2.337,1.684,5.796,4.015,10.194,6.694c4.394,2.687,9.769,5.646,15.837,8.741c6.073,3.087,12.849,6.288,19.97,9.639
						c14.191,6.733,27.039,12.828,36.405,17.271c4.603,2.22,8.348,4.025,11.002,5.305c1.252,0.619,2.245,1.11,2.977,1.473
						c0.307,0.159,0.559,0.29,0.767,0.398C395.438,280.524,395.523,280.576,395.518,280.587z"/>
				</g>
				<g>
					<path style="fill:#93562C;" d="M304.921,226.593c-0.001,0.046-0.452,0.077-1.269,0.092c-0.817,0.022-1.999-0.01-3.457-0.107
						c-2.914-0.189-6.936-0.742-11.249-1.909c-4.312-1.176-8.061-2.734-10.67-4.046c-1.306-0.655-2.342-1.225-3.035-1.657
						c-0.697-0.427-1.07-0.681-1.048-0.721c0.054-0.095,1.64,0.759,4.285,1.95c2.642,1.195,6.377,2.665,10.644,3.829
						c4.268,1.155,8.233,1.776,11.116,2.083C303.123,226.417,304.923,226.483,304.921,226.593z"/>
				</g>
				<g>
					<path style="fill:#93562C;" d="M298.01,222.097c-0.18-0.04,1.116-6.509,2.893-14.445c1.779-7.94,3.367-14.341,3.547-14.3
						c0.18,0.04-1.116,6.507-2.894,14.446C299.778,215.735,298.19,222.137,298.01,222.097z"/>
				</g>
			</g>
		</g>
		<g>
			<polygon style="fill:#F25A29;" points="170.359,288.242 141.19,301.857 143.321,358.956 217.378,385.971 237.492,375.687 
				244.448,310.482 			"/>
			<polygon style="fill:#CE411B;" points="221.134,325.198 217.378,385.971 237.492,375.687 244.448,310.482 			"/>
			<polygon style="fill:#F2E1BF;" points="172.487,331.084 172.719,339.455 191.62,346.347 191.903,336.769 			"/>
			<polygon style="fill:#FF7F5C;" points="141.19,301.857 221.134,325.198 244.448,310.482 170.359,288.242 			"/>
			<g>
				<path style="fill:#5E2E2A;" d="M156.268,294.819c0.002-0.007,0.123,0.022,0.357,0.087c0.252,0.072,0.595,0.171,1.034,0.297
					c0.928,0.276,2.259,0.673,3.964,1.181c3.458,1.05,8.424,2.56,14.553,4.422c12.294,3.78,29.244,8.99,47.965,14.746
					c2.963,0.916,5.882,1.818,8.65,2.673l0.164,0.051l-0.012,0.171c-1.184,17.438-2.233,32.874-2.987,43.976
					c-0.394,5.524-0.711,9.968-0.932,13.054c-0.117,1.515-0.208,2.695-0.272,3.52c-0.034,0.385-0.061,0.687-0.08,0.911
					c-0.021,0.205-0.034,0.31-0.041,0.309c-0.007-0.001-0.007-0.106,0-0.312c0.01-0.225,0.023-0.528,0.04-0.914
					c0.046-0.826,0.111-2.008,0.195-3.525c0.189-3.089,0.461-7.536,0.8-13.063c0.718-11.104,1.716-26.544,2.843-43.986l0.152,0.222
					c-2.769-0.854-5.688-1.755-8.651-2.67c-18.707-5.803-35.643-11.058-47.927-14.868c-6.112-1.918-11.065-3.473-14.512-4.555
					c-1.694-0.542-3.017-0.965-3.939-1.259c-0.434-0.144-0.772-0.256-1.021-0.338C156.383,294.87,156.266,294.826,156.268,294.819z"
					/>
			</g>
			<g>
				<path style="fill:#CE411B;" d="M143.581,308.491c0,0,0.11,0.025,0.336,0.087c0.24,0.067,0.575,0.161,1.013,0.284
					c0.91,0.259,2.236,0.637,3.955,1.126c3.481,0.998,8.544,2.45,14.934,4.282c12.845,3.703,31.014,8.94,52.362,15.094l0.153,0.044
					l-0.008,0.16c-0.722,14.741-1.516,30.945-2.349,47.952c-0.053,1.084-0.107,2.165-0.159,3.219l-0.015,0.293l-0.277-0.098
					c-25.66-9.061-49.222-17.382-67.873-23.968l-0.111-0.039l-0.005-0.117c-0.611-14.779-1.111-26.876-1.459-35.294
					c-0.166-4.176-0.295-7.436-0.384-9.667c-0.041-1.094-0.072-1.934-0.094-2.515C143.584,308.771,143.581,308.491,143.581,308.491
					s0.024,0.307,0.055,0.885c0.03,0.589,0.073,1.441,0.129,2.551c0.109,2.242,0.268,5.517,0.471,9.711
					c0.394,8.385,0.959,20.435,1.65,35.158l-0.115-0.156c18.659,6.562,42.231,14.853,67.903,23.882l-0.291,0.196
					c0.052-1.054,0.105-2.135,0.159-3.219c0.845-17.007,1.65-33.21,2.383-47.951l0.145,0.203
					c-21.262-6.22-39.358-11.515-52.151-15.258c-6.4-1.882-11.472-3.374-14.959-4.399c-1.734-0.513-3.07-0.909-3.989-1.181
					c-0.446-0.134-0.788-0.237-1.032-0.31C143.705,308.534,143.581,308.491,143.581,308.491z"/>
			</g>
			<polygon style="fill:#5E2E2A;" points="225.893,304.867 205.591,320.66 201.688,380.582 207.93,382.823 214.279,323.198 
				233.912,307.332 			"/>
			<polygon style="fill:#5E2E2A;" points="154.597,363.069 152.857,305.053 177.305,290.327 185.025,292.644 160.494,307.386 
				159.449,364.839 			"/>
			<g>
				<path style="fill:#5E2E2A;" d="M205.492,311.72c-0.295-0.098-0.372-0.785-0.394-1.952c-0.027-1.163,0.018-2.817-0.175-4.763
					c-0.191-1.932-0.655-4.192-1.856-6.099c-1.175-1.916-3.205-3.324-5.899-4.029c-1.341-0.358-2.663-0.526-3.827-0.438
					c-1.177,0.071-2.176,0.45-3.061,1c-0.887,0.55-1.614,1.358-2.231,2.21c-0.613,0.859-1.099,1.783-1.495,2.667
					c-0.791,1.776-1.256,3.369-1.643,4.465c-0.382,1.104-0.67,1.734-0.981,1.734c-0.306,0.001-0.608-0.675-0.75-1.911
					c-0.132-1.235-0.138-3.043,0.371-5.273c0.261-1.112,0.658-2.333,1.323-3.594c0.669-1.246,1.6-2.576,2.994-3.636
					c1.373-1.06,3.17-1.829,5.017-2.016c1.852-0.214,3.689,0.011,5.443,0.477c1.759,0.467,3.475,1.236,4.936,2.335
					c1.462,1.092,2.639,2.503,3.388,3.984c0.765,1.476,1.167,2.976,1.36,4.354c0.191,1.381,0.177,2.652,0.073,3.783
					c-0.217,2.266-0.776,3.986-1.286,5.12C206.282,311.268,205.783,311.817,205.492,311.72z"/>
			</g>
			<g>
				<path style="fill:#5E2E2A;" d="M188.638,341.03c-0.018,0.056-0.794-0.135-2.027-0.516c-1.233-0.381-2.92-0.96-4.754-1.675
					c-1.835-0.716-3.469-1.432-4.634-1.987c-1.166-0.554-1.866-0.939-1.841-0.993c0.026-0.056,0.771,0.229,1.965,0.709
					c1.343,0.536,2.923,1.166,4.669,1.862c1.756,0.669,3.345,1.275,4.696,1.79C187.915,340.677,188.657,340.971,188.638,341.03z"/>
			</g>
			<path style="fill:#5E2E2A;" d="M203.174,346.831c-0.069,0.354-0.453,2.338-0.453,2.338l9.234,2.387l0.565-2.914L203.174,346.831z
				"/>
			<path style="fill:#5E2E2A;" d="M152.557,333.131c-0.111,0.343-0.735,2.265-0.735,2.265l8.874,3.496l0.916-2.823L152.557,333.131z
				"/>
		</g>
		<g>
			<g>
				<path style="fill:#FFA33E;" d="M116.64,351.234c0,0,4.311,17.906,4.311,27.854c0,9.948-2.155,15.585-2.155,15.585
					s2.155,15.585,41.947,11.606c39.791-3.979,80.909-17.906,104.452-29.18c23.543-11.274,70.629-18.901,78.587-18.901
					c7.958,0,31.325-1.031,31.988,12.232c0,0-1.813-17.538-1.481-25.496c0.332-7.958,1.989-21.553,1.989-21.553
					s-0.995-14.922-41.449-11.606s-70.629,14.59-102.131,27.522c-31.501,12.932-62.371,22.35-84.588,21.437
					C125.893,359.82,120.288,357.535,116.64,351.234z"/>
			</g>
			<path id="SVGID_x5F_00000062183368142680404650000005402648861254931646_x5F_" style="fill:none;" d="M136.812,386.373
				c0,0,29.708,12.609,105.189-15.559c47.535-17.739,96.109-36.696,128.934-21.181"/>
			<text>			<textPath  xlink:href="#SVGID_x5F_00000062183368142680404650000005402648861254931646_x5F_" startOffset="3.4015%">
<tspan  style="fill:#FFFDFF; font-family:'ReklameScript-RegularDEMO'; font-size:37.4223px;">Travel Agency</tspan>			</textPath>
</text>
		</g>
		<g>
			<g>
				<g>
					<path style="fill:#243849;" d="M261.773,377.854c0,0,58.322,8.363,62.927,11.013c4.605,2.65,7.246,9.022,8.802,10.614
						c2.419,2.476,5.406,1.33,5.406,1.33s-4.623-14.449-25.226-19.858l-51.444-11.613L261.773,377.854z"/>
					<path style="fill:#243849;" d="M346.605,389.479c0,0-58.759-4.339-63.824-2.738c-5.066,1.601-9.012,7.258-10.873,8.48
						c-2.894,1.9-5.565,0.139-5.565,0.139s7.614-13.121,28.897-13.986l51.921,1.427L346.605,389.479z"/>
					<g>
						<path style="fill:#284064;" d="M312.657,375.597c0,0-7.948,1.912-15.747-2.314c-6.186-3.352-28.22-4.463-34.671-3.828
							l-0.465,8.514l1.29-0.127c0,0-2.848,19.606,9.922,21.389c12.77,1.783,23.522,0.725,28.492-14.964c0,0,0.356-3.007,2.771-2.736
							c2.415,0.271,2.13,3.99,2.13,3.99s-0.972,16.598,14.741,19.612c15.713,3.013,21.03-0.333,22.57-8.953l1.107-6.406l2.151-0.212
							l0.215-6.646C347.162,382.917,338.927,373.272,312.657,375.597z M296.624,387.891c-3.765,8.077-9.058,11.246-19.185,10.25
							c-10.127-0.996-12.769-6.918-11.716-15.349c0.54-4.324,2.657-6.542,4.639-7.679c1.542-0.885,3.336-1.226,5.111-1.121
							c3.429,0.202,12.874,0.815,17.607,1.668C298.787,376.688,300.389,379.815,296.624,387.891z M341.183,390.635
							c-0.228,8.494-3.731,13.951-13.892,13.412c-10.161-0.539-14.917-4.469-17.424-13.02c-2.507-8.551-0.452-11.401,5.344-11.559
							c4.808-0.131,14.237,0.685,17.658,1c1.771,0.164,3.492,0.77,4.884,1.878C339.54,383.768,341.299,386.28,341.183,390.635z"/>
						<path style="opacity:0.49;fill:#6B9F9D;" d="M275.473,373.991c-1.775-0.105-3.569,0.236-5.111,1.121
							c-1.982,1.137-4.099,3.356-4.639,7.679c-1.053,8.431,1.589,14.354,11.716,15.349c10.127,0.996,15.42-2.174,19.185-10.25
							c3.765-8.076,2.162-11.203-3.544-12.232C288.347,374.806,278.902,374.194,275.473,373.991z"/>
						<path style="opacity:0.49;fill:#6B9F9D;" d="M332.868,380.468c1.771,0.164,3.492,0.77,4.884,1.878
							c1.788,1.423,3.547,3.934,3.431,8.29c-0.228,8.494-3.731,13.951-13.892,13.412c-10.161-0.539-14.917-4.469-17.424-13.02
							c-2.507-8.551-0.452-11.401,5.344-11.559C320.018,379.336,329.447,380.152,332.868,380.468z"/>
					</g>
				</g>
			</g>
		</g>
	</g>
</g>

</svg>
